<?xml version="1.0" standalone="no"?>
<!DOCTYPE svg PUBLIC "-//W3C//DTD SVG 20010904//EN"
 "http://www.w3.org/TR/2001/REC-SVG-20010904/DTD/svg10.dtd">
<svg version="1.0" xmlns="http://www.w3.org/2000/svg"
 width="260.000000pt" height="260.000000pt" viewBox="0 0 260.000000 260.000000"
 preserveAspectRatio="xMidYMid meet">
<metadata>
Created by potrace 1.14, written by Peter Selinger 2001-2017
</metadata>
<g transform="translate(0.000000,260.000000) scale(0.100000,-0.100000)"
fill="#000000" stroke="none">
<path d="M12 1750 c2 -546 6 -841 13 -841 13 -2 38 41 180 311 65 124 129 245
143 270 38 67 62 118 62 130 0 5 5 10 10 10 6 0 10 5 10 10 0 6 11 28 25 50
14 22 23 40 20 40 -3 0 6 18 20 40 14 22 23 40 20 40 -3 0 3 10 14 22 11 11
18 25 15 30 -3 4 -1 8 3 8 5 0 47 75 93 168 47 92 88 169 93 170 4 2 7 8 7 13
0 6 40 87 90 181 49 94 87 175 84 180 -3 4 -207 8 -455 8 l-449 0 2 -840z"/>
<path d="M1243 2538 c-16 -30 -35 -68 -42 -86 -7 -18 -17 -32 -22 -32 -5 0 -8
-3 -8 -7 3 -15 -23 -73 -33 -73 -5 0 -7 -4 -4 -9 3 -5 -1 -14 -9 -21 -8 -7
-13 -16 -10 -20 3 -4 -5 -19 -16 -34 -11 -14 -18 -26 -14 -26 3 0 -3 -13 -15
-30 -12 -16 -18 -30 -13 -30 4 0 3 -4 -3 -8 -15 -9 -106 -192 -97 -192 5 0 3
-4 -3 -8 -6 -4 -59 -102 -116 -217 -58 -116 -110 -219 -116 -230 -6 -11 -46
-90 -88 -175 -42 -85 -79 -157 -83 -160 -3 -3 -7 -12 -9 -20 -2 -8 -8 -17 -13
-18 -5 -2 -7 -8 -3 -13 3 -5 0 -9 -5 -9 -6 0 -11 -3 -10 -7 2 -16 -14 -53 -22
-53 -5 0 -8 -3 -8 -7 3 -14 -25 -73 -34 -73 -4 0 -5 -4 -2 -10 3 -5 1 -10 -6
-10 -7 0 -10 -2 -7 -5 2 -3 -35 -83 -84 -178 -243 -471 -348 -694 -348 -736 0
-39 2 -41 30 -41 28 0 161 72 168 91 2 5 9 9 14 9 13 0 112 61 116 72 2 5 10
8 18 8 8 0 14 5 14 11 0 5 4 8 8 5 5 -3 21 6 37 20 15 13 34 24 41 24 7 0 17
6 21 12 4 7 28 24 53 37 25 14 74 43 110 66 l65 42 160 319 c88 175 165 322
170 326 6 4 6 8 1 8 -5 0 -2 8 7 18 10 10 14 22 10 25 -3 4 -1 7 6 7 7 0 9 5
6 10 -3 6 -1 10 5 10 6 0 9 4 5 9 -3 5 1 16 9 24 8 8 12 17 9 21 -4 3 -2 6 4
6 9 0 29 33 31 53 5 34 22 36 488 39 l459 3 78 28 c195 69 347 220 414 414 23
69 27 94 27 208 1 117 -2 140 -28 223 -16 50 -33 92 -38 92 -4 0 -8 5 -8 10 0
19 -54 94 -103 143 -68 67 -170 131 -263 164 l-79 28 -396 3 -397 3 -29 -53z
m632 -388 c0 -1 14 -3 30 -5 37 -3 64 -13 88 -33 9 -8 17 -12 17 -8 0 16 62
-62 81 -102 61 -124 -34 -277 -186 -302 -70 -11 -545 -14 -545 -2 0 4 50 108
112 232 l113 225 145 -1 c80 -1 145 -3 145 -4z"/>
<path d="M1274 1218 c-4 -6 -20 -39 -36 -72 -16 -34 -40 -84 -54 -113 -14 -29
-25 -56 -25 -60 0 -4 -9 -21 -19 -38 -10 -16 -19 -34 -20 -40 -1 -5 -11 -30
-22 -55 -12 -25 -20 -45 -18 -45 1 0 -10 -22 -25 -48 -14 -27 -24 -51 -21 -54
3 -3 -2 -12 -10 -20 -8 -8 -12 -19 -9 -24 4 -5 2 -9 -3 -9 -10 0 -48 -89 -44
-102 1 -5 -3 -8 -9 -8 -5 0 -7 -4 -4 -10 3 -5 1 -10 -4 -10 -6 0 -11 -5 -11
-11 0 -5 -18 -48 -40 -95 -22 -47 -40 -88 -40 -92 0 -4 -9 -25 -20 -47 -20
-40 -25 -81 -12 -101 4 -7 62 -10 164 -10 126 1 160 4 171 16 8 8 66 127 128
263 l113 248 22 -43 c12 -24 63 -135 115 -248 51 -113 101 -212 110 -220 25
-23 298 -22 310 0 5 8 70 164 145 345 74 182 144 349 155 372 10 24 19 49 19
57 0 7 7 19 15 26 8 7 12 16 9 21 -3 5 -1 9 5 9 6 0 8 6 5 14 -3 8 -1 17 5 21
6 3 11 15 11 26 0 10 5 19 11 19 5 0 7 5 4 10 -3 6 -1 10 5 10 6 0 9 4 5 9 -3
5 -1 12 5 16 6 4 8 11 5 16 -4 5 -2 9 3 9 5 0 8 10 7 23 -1 12 -3 30 -4 40 -1
16 -14 17 -158 15 l-157 -3 -61 -131 c-97 -210 -137 -299 -137 -304 1 -3 -7
-13 -15 -22 -9 -10 -13 -18 -10 -18 3 0 1 -13 -4 -30 -6 -16 -15 -30 -21 -30
-5 0 -7 -4 -4 -8 2 -4 1 -14 -5 -22 -7 -13 -9 -12 -9 3 0 9 -5 17 -12 17 -6 0
-8 3 -5 7 4 3 -3 21 -14 40 -11 18 -18 33 -15 33 4 0 -1 11 -10 25 -9 14 -12
25 -8 25 5 0 2 5 -6 10 -8 5 -15 15 -16 22 0 7 -10 33 -22 58 -29 62 -84 182
-121 263 l-30 67 -125 0 c-85 0 -127 -4 -132 -12z"/>
</g>
</svg>
