<?xml version="1.0" standalone="no"?>
<!DOCTYPE svg PUBLIC "-//W3C//DTD SVG 20010904//EN"
 "http://www.w3.org/TR/2001/REC-SVG-20010904/DTD/svg10.dtd">
<svg version="1.0" xmlns="http://www.w3.org/2000/svg"
 width="260.000000pt" height="260.000000pt" viewBox="0 0 260.000000 260.000000"
 preserveAspectRatio="xMidYMid meet">
<metadata>
Created by potrace 1.14, written by Peter Selinger 2001-2017
</metadata>
<g transform="translate(0.000000,260.000000) scale(0.100000,-0.100000)"
fill="#000000" stroke="none">
<path d="M1244 2538 c-16 -29 -38 -72 -48 -95 -10 -24 -23 -43 -28 -43 -5 0
-6 -4 -3 -10 3 -5 1 -10 -5 -10 -6 0 -9 -4 -5 -9 3 -5 0 -15 -7 -23 -7 -7 -14
-20 -16 -28 -2 -8 -7 -17 -10 -20 -4 -3 -8 -12 -10 -20 -2 -8 -11 -23 -19 -32
-9 -10 -13 -18 -9 -18 4 0 -2 -13 -14 -30 -12 -16 -18 -30 -13 -30 4 0 3 -4
-3 -8 -15 -9 -106 -192 -97 -192 5 0 3 -4 -3 -8 -6 -4 -59 -102 -117 -219 -58
-116 -111 -220 -116 -230 -6 -10 -45 -88 -87 -173 -42 -85 -79 -157 -83 -160
-3 -3 -7 -12 -9 -20 -2 -8 -8 -17 -13 -18 -5 -2 -7 -8 -3 -13 3 -5 0 -9 -5 -9
-6 0 -11 -3 -10 -7 2 -16 -14 -53 -22 -53 -5 0 -8 -3 -8 -7 3 -14 -25 -73 -34
-73 -4 0 -5 -4 -2 -10 3 -5 1 -10 -6 -10 -7 0 -10 -2 -7 -5 2 -3 -35 -83 -84
-178 -243 -471 -348 -694 -348 -736 0 -39 2 -41 30 -41 31 0 180 84 180 101 0
6 4 8 10 4 5 -3 18 3 29 14 11 11 22 17 25 14 3 -4 6 -1 6 6 0 7 4 10 8 7 5
-3 18 4 30 14 12 11 26 20 32 20 5 0 10 5 10 11 0 5 4 8 8 5 5 -3 21 6 37 20
15 13 34 24 41 24 7 0 17 6 21 12 4 7 28 24 53 37 25 14 74 43 110 66 l65 42
160 319 c88 175 165 322 170 326 6 4 6 8 1 8 -5 0 -2 8 7 18 10 10 14 22 10
25 -3 4 -1 7 6 7 7 0 9 5 6 10 -3 6 -1 10 5 10 6 0 9 4 5 9 -3 5 1 16 9 24 8
8 12 17 9 21 -4 3 -1 6 5 6 7 0 12 6 12 14 0 8 4 16 9 18 5 2 11 10 13 18 8
38 13 39 484 42 l459 3 78 28 c195 69 347 220 414 414 24 70 27 92 27 213 0
122 -3 143 -29 220 -16 47 -31 87 -35 90 -3 3 -19 27 -34 54 -61 104 -204 214
-342 263 l-79 28 -396 3 -397 3 -28 -53z m631 -388 c0 -1 14 -3 30 -5 37 -3
64 -13 88 -33 9 -8 17 -12 17 -8 0 17 59 -56 80 -98 62 -128 -30 -281 -185
-306 -70 -11 -545 -14 -545 -2 0 4 50 108 112 232 l113 225 145 -1 c80 -1 145
-3 145 -4z"/>
<path d="M20 1739 c0 -575 3 -838 10 -834 6 4 43 70 82 148 39 78 74 144 78
147 4 3 42 73 84 155 78 153 96 186 107 195 8 6 24 53 21 63 -1 4 3 7 8 7 5 0
9 3 8 8 -1 4 13 34 32 67 19 33 35 65 36 72 1 6 11 22 23 34 11 12 18 26 15
31 -3 4 0 8 7 8 7 0 10 3 6 6 -3 3 3 16 14 27 11 12 23 33 26 47 4 14 19 48
35 75 16 28 36 66 45 85 8 19 18 37 22 40 3 3 34 61 68 130 35 69 88 170 118
224 30 54 55 101 55 102 0 2 -202 4 -450 4 l-450 0 0 -841z"/>
<path d="M1274 1218 c-4 -6 -20 -39 -36 -72 -16 -34 -38 -80 -50 -103 -11 -23
-19 -45 -18 -48 1 -3 -10 -26 -25 -50 -14 -25 -26 -48 -26 -52 -1 -5 -10 -28
-21 -53 -12 -25 -20 -45 -18 -45 1 0 -10 -21 -24 -48 -15 -26 -24 -52 -21 -57
3 -6 1 -10 -5 -10 -6 0 -8 -4 -5 -10 3 -5 1 -10 -5 -10 -6 0 -8 -4 -5 -10 3
-5 2 -10 -3 -10 -10 0 -48 -89 -44 -102 1 -5 -3 -8 -9 -8 -5 0 -7 -4 -4 -10 3
-5 1 -10 -4 -10 -6 0 -11 -5 -11 -11 0 -5 -18 -48 -40 -95 -22 -47 -40 -88
-40 -92 0 -4 -9 -25 -20 -47 -20 -40 -25 -81 -12 -101 4 -7 62 -10 164 -10
126 1 160 4 171 16 8 8 66 127 128 263 l113 248 22 -43 c12 -24 63 -135 115
-248 51 -113 101 -212 110 -220 25 -23 298 -22 310 0 5 8 70 164 144 345 75
182 143 344 150 360 23 51 38 89 41 105 2 8 7 16 13 18 5 2 8 9 5 17 -3 7 -1
16 5 20 6 3 11 15 11 25 0 10 7 25 15 33 8 8 11 17 8 21 -4 3 -1 6 5 6 6 0 9
7 6 15 -4 8 -2 15 4 15 5 0 8 10 7 23 -1 12 -3 30 -4 40 -1 16 -14 17 -158 15
l-157 -3 -61 -131 c-97 -210 -137 -299 -137 -304 1 -3 -7 -13 -15 -22 -9 -10
-13 -18 -10 -18 3 0 1 -13 -4 -30 -6 -16 -15 -30 -21 -30 -5 0 -7 -4 -4 -8 2
-4 1 -14 -5 -22 -7 -13 -9 -12 -9 3 0 9 -5 17 -12 17 -6 0 -8 3 -5 7 4 3 -3
21 -14 40 -11 18 -18 33 -15 33 4 0 -1 11 -10 25 -9 14 -12 25 -8 25 5 0 2 5
-6 10 -8 5 -15 15 -16 22 0 7 -10 33 -22 58 -29 62 -84 182 -121 263 l-30 67
-125 0 c-85 0 -127 -4 -132 -12z"/>
</g>
</svg>
